<svg xml:space="preserve" style="enable-background:new 0 0 837.2 155.7;" viewBox="0 0 837.2 155.7" y="0px" x="0px" xmlns:xlink="http://www.w3.org/1999/xlink" xmlns="http://www.w3.org/2000/svg" id="_Слой_2" version="1.1">
<style type="text/css">
	.st0{fill:#1D1D1F;}
</style>
<g id="_Слой_1-2">
	<g>
		<g>
			<path d="M206.7,1.6H233v61.9h31.7V1.6h26.3v152.6h-26.3V87.5H233v66.7h-26.3L206.7,1.6L206.7,1.6z" class="st0"></path>
			<path d="M314,1.6h26.3v152.6H314V1.6z" class="st0"></path>
			<path d="M380.3,22.4h-26.7V1.6h79.7v20.9h-26.7v131.7h-26.3V22.4z" class="st0"></path>
			<path d="M443.2,115.1v-8.8h23.5v6.7c0,18.6,2,21.8,15,21.8h2.7c12.6,0,15-2.7,15-20.2v-6.1
				c0-14.1-3.8-17.5-24.5-22.7c-24.7-6.5-31.9-15.7-31.9-42.6v-4.9c0-29,9-38.4,35.7-38.4h4.5c31.6,0,37.5,8.3,37.5,38.6V46h-23.1
				v-6.3c0-15.3-2.5-19.3-13.5-19.3h-3.1c-10.5,0-13.5,3.4-13.5,18.4v4.3c0,12.8,2.7,17.3,21.8,22c27.6,6.9,34.6,15.3,34.6,41.7v5.6
				c0,35.5-7.9,43.3-37.9,43.3h-4.5C448.5,155.7,443.2,148.1,443.2,115.1L443.2,115.1z" class="st0"></path>
			<path d="M540.8,96V57.9C540.8,12.1,546,0,582.3,0h2.2c32.5,0,39.9,9,39.9,44v7.4h-25.1v-6.7
				c0-19.3-2.5-23.6-14.1-23.6H583c-13.5,0-15.5,3.4-15.5,33.7v44c0,33,1.8,35.5,15.3,35.5h2.2c11.7,0,14.6-2.5,14.6-25.1v-6.5h25.1
				v7.2c0,38.6-7.6,46-40.4,46h-2.2C546,155.8,540.8,145.9,540.8,96L540.8,96z" class="st0"></path>
			<path d="M659.4,1.6h40.4l29.2,152.6h-27.2l-5.6-33.2h-34.1l-5.6,33.2h-25.8L659.4,1.6z M693.7,101l-13.9-80.3h-1.1
				L664.3,101H693.7L693.7,101z" class="st0"></path>
			<path d="M741.8,1.6h38.6l34.1,128.8h0.9L813.8,1.6h23.3v152.6h-37.7L765.1,24.7H764l1.1,129.5h-23.3L741.8,1.6
				L741.8,1.6z" class="st0"></path>
		</g>
		<g>
			<path d="M0.3,135.4l54.3-48.8c0.3-0.3,0.9-0.3,1.2,0l13.3,13.3c0.3,0.3,0.3,0.9,0,1.2l-48.8,54.3
				c-0.3,0.4-0.9,0.4-1.3,0L0.3,136.7C-0.1,136.3-0.1,135.7,0.3,135.4L0.3,135.4z" class="st0"></path>
			<path d="M135.4,155.4l-48.8-54.3c-0.3-0.3-0.3-0.9,0-1.2l13.3-13.3c0.3-0.3,0.9-0.3,1.2,0l54.3,48.8
				c0.4,0.3,0.4,0.9,0,1.3l-18.8,18.8C136.3,155.8,135.7,155.8,135.4,155.4L135.4,155.4z" class="st0"></path>
			<path d="M155.4,20.4l-54.3,48.8c-0.3,0.3-0.9,0.3-1.2,0L86.6,55.8c-0.3-0.3-0.3-0.9,0-1.2l48.8-54.3
				c0.3-0.4,0.9-0.4,1.3,0l18.8,18.8C155.8,19.4,155.8,20,155.4,20.4z" class="st0"></path>
			<path d="M20.4,0.3l48.8,54.3c0.3,0.3,0.3,0.9,0,1.2L55.8,69.1c-0.3,0.3-0.9,0.3-1.2,0L0.3,20.4
				c-0.4-0.3-0.4-0.9,0-1.3L19,0.3C19.4-0.1,20-0.1,20.4,0.3L20.4,0.3z" class="st0"></path>
		</g>
	</g>
</g>
</svg>
