<svg xml:space="preserve" style="enable-background:new 0 0 231.24 28.93;" viewBox="0 0 231.24 28.93" y="0px" x="0px" xmlns:xlink="http://www.w3.org/1999/xlink" xmlns="http://www.w3.org/2000/svg" version="1.1">
<style type="text/css">
	.st0{fill:#FFA300;}
	.st1{fill:#231815;}
</style>
<g id="_x5F_U_x2B_56FE_x5F_U_x2B_5C42_1">
	<path d="M16.27,14.53C16.27,14.53,16.27,14.53,16.27,14.53c0-0.04,0-0.08,0-0.12c0-1.71,0-3.42,0-5.13
		c0-0.96-0.01-1.92-0.01-2.89c0-0.68,0-1.36-0.01-2.04c0-0.42,0.01-0.84,0-1.26c0-0.17-0.02-0.35-0.07-0.52
		c-0.24-0.72-0.68-1.29-1.29-1.72c-0.31-0.22-0.53-0.21-0.84,0c-0.38,0.25-0.66,0.59-0.92,0.96c-0.19,0.28-0.36,0.57-0.41,0.91
		c-0.04,0.25-0.05,0.5-0.05,0.76c0,5.44,0,10.89,0,16.33c0,1.1,0.01,2.19,0.01,3.29c0,0.91,0.01,1.83,0,2.74
		c0,0.4,0.09,0.75,0.3,1.09c0.29,0.48,0.65,0.91,1.1,1.26c0.28,0.22,0.5,0.21,0.79,0c0.03-0.02,0.06-0.05,0.09-0.07
		c0.45-0.38,0.82-0.83,1.1-1.36c0.09-0.17,0.16-0.37,0.19-0.56c0.04-0.32,0.04-0.65,0.04-0.98c0-3.52,0-7.04,0-10.57
		C16.27,14.62,16.27,14.58,16.27,14.53z" class="st0"></path>
	<path d="M0.64,8.64c0.03-0.17,0.04-0.33,0.08-0.5C0.76,7.98,0.8,7.82,0.87,7.67c0.25-0.56,0.57-1.07,1.01-1.51
		c0.2-0.2,0.35-0.2,0.55-0.01C2.88,6.6,3.34,7.05,3.8,7.5c0.94,0.93,1.87,1.85,2.81,2.78c0.58,0.58,1.17,1.15,1.69,1.78
		c0.74,0.9,1.25,1.91,1.59,3.02c0.11,0.36,0.23,0.72,0.31,1.09c0.06,0.25,0.08,0.52,0.08,0.78c0.01,1.77,0.01,3.55,0.02,5.32
		c0,0.1,0.01,0.2,0.01,0.3c0,0.17-0.05,0.22-0.21,0.24c-0.45,0.06-0.89,0.03-1.32-0.11c-0.43-0.14-0.84-0.33-1.21-0.6
		c-0.52-0.38-0.84-0.88-0.97-1.51c-0.07-0.34-0.1-0.69-0.1-1.04c0-0.74,0.01-1.48,0-2.21c-0.01-0.56-0.09-1.11-0.35-1.61
		c-0.21-0.4-0.45-0.77-0.76-1.09c-0.52-0.54-1.06-1.07-1.59-1.6c-0.73-0.73-1.46-1.45-2.19-2.19c-0.15-0.15-0.28-0.3-0.41-0.47
		C0.88,9.97,0.69,9.5,0.66,8.97c0-0.02-0.01-0.04-0.02-0.05C0.64,8.82,0.64,8.73,0.64,8.64z" class="st0"></path>
	<path d="M18.62,21.16c0-0.45,0-0.9,0-1.35c0-0.95,0-1.9,0.01-2.85c0.01-0.59,0.16-1.15,0.34-1.71
		c0.25-0.77,0.55-1.52,0.97-2.22c0.4-0.65,0.88-1.25,1.41-1.78c1.49-1.5,3-2.99,4.5-4.48c0.21-0.2,0.41-0.41,0.62-0.61
		c0.05-0.04,0.1-0.09,0.15-0.12c0.12-0.07,0.24-0.06,0.34,0.04c0.6,0.6,1.1,1.28,1.25,2.14c0.17,0.94-0.07,1.78-0.75,2.46
		c-1.13,1.14-2.27,2.27-3.41,3.39c-0.43,0.42-0.83,0.86-1.14,1.38c-0.35,0.58-0.49,1.22-0.49,1.89c-0.01,0.84-0.01,1.68-0.02,2.52
		c-0.01,0.54-0.13,1.06-0.4,1.53c-0.21,0.37-0.53,0.65-0.89,0.87c-0.44,0.27-0.91,0.49-1.43,0.55c-0.3,0.03-0.6,0.02-0.9,0.01
		c-0.14,0-0.19-0.07-0.19-0.23C18.61,22.11,18.61,21.64,18.62,21.16C18.62,21.16,18.62,21.16,18.62,21.16z" class="st0"></path>
</g>
<g id="默认值">
	<rect height="27.67" width="1.68" class="st0" y="0.69" x="37.94"></rect>
	<g>
		<polygon points="88.54,22.49 88.4,22.35 88.4,22.35 88.4,4.55 82.54,4.55 82.54,28.21 94.26,28.21" class="st1"></polygon>
		<polygon points="99,22.35 91.08,22.35 96.94,28.21 99,28.21" class="st1"></polygon>
		<polygon points="61.45,13.08 63.45,8.72 64.18,7.13 64.62,8.05 68.18,15.55 73.2,4.99 79.64,4.99 68.61,28.21" class="st1"></polygon>
		<polygon points="49.27,4.99 55.71,4.99 60.31,14.67 60.63,15.34 63.54,21.4 63.51,21.47 60.8,27.17 60.31,28.21 
			57.14,21.55" class="st1"></polygon>
		<polygon points="102.44,14.61 102.44,28.21 108.3,28.21 108.3,20.47" class="st1"></polygon>
		<polygon points="126.11,4.55 125.19,4.55 114.27,15.46 103.36,4.55 102.44,4.55 102.44,11.93 108.3,17.79 
			114.27,23.77 120.25,17.79 120.25,28.21 126.11,28.21" class="st1"></polygon>
		<path d="M149.74,8.01c-2.23-2.23-5.21-3.47-8.37-3.47c-2.66,0-5.16,0.86-7.26,2.49c-0.14,0.11-0.28,0.22-0.42,0.33
			c1.39,1.39,2.79,2.79,4.18,4.18c0.11-0.07,0.21-0.14,0.32-0.2c0.95-0.6,2.05-0.92,3.18-0.92c1.59,0,3.09,0.62,4.21,1.75
			c1.13,1.13,1.75,2.62,1.75,4.21c0,1.13-0.32,2.23-0.92,3.18c-0.07,0.11-0.14,0.21-0.2,0.32c1.39,1.39,2.79,2.79,4.18,4.18
			c0.11-0.14,0.22-0.28,0.33-0.42c1.63-2.09,2.49-4.6,2.49-7.26C153.2,13.22,151.97,10.25,149.74,8.01z" class="st1"></path>
		<path d="M148.63,25.73c0.14-0.11,0.28-0.22,0.42-0.33c-1.39-1.39-2.79-2.79-4.18-4.18c-0.11,0.07-0.21,0.14-0.32,0.2
			c-0.95,0.6-2.05,0.92-3.18,0.92c-1.59,0-3.09-0.62-4.21-1.75c-1.13-1.12-1.75-2.62-1.75-4.21c0-1.13,0.32-2.23,0.92-3.18
			c0.07-0.11,0.14-0.21,0.2-0.32c-1.39-1.39-2.79-2.79-4.18-4.18c-0.11,0.14-0.22,0.28-0.33,0.42c-1.63,2.09-2.49,4.6-2.49,7.26
			c0,3.16,1.23,6.13,3.47,8.37c2.23,2.23,5.21,3.47,8.37,3.47C144.03,28.21,146.54,27.35,148.63,25.73z" class="st1"></path>
		<path d="M180.3,16.38c0-3.94,0-7.89,0-11.83c-1.96,0-3.92,0-5.87,0c0,3.94,0,7.89,0,11.83c0,1.59-0.62,3.09-1.75,4.21
			c-0.31,0.31-0.65,0.58-1.01,0.82c-0.17,0.11-0.33,0.21-0.5,0.32c1.41,1.41,2.83,2.83,4.24,4.24c0.11-0.09,0.22-0.17,0.33-0.26
			c1.39-1.08,2.53-2.49,3.32-4.06C179.89,20.01,180.3,18.23,180.3,16.38z" class="st1"></path>
		<path d="M173.12,27.26c0.21-0.09,0.43-0.18,0.64-0.28c-1.56-1.56-3.12-3.12-4.68-4.68c-0.07,0-0.14,0.01-0.21,0.01
			c-0.13,0.01-0.26,0.01-0.4,0.01c-1.59,0-3.09-0.62-4.21-1.75c-1.13-1.12-1.75-2.62-1.75-4.21c0-0.21,0-0.43,0-0.64
			c-1.96-1.96-3.92-3.92-5.87-5.87c0,2.17,0,4.34,0,6.51c0,3.9,1.92,7.54,5.13,9.75c1.98,1.36,4.29,2.08,6.7,2.08
			C170.08,28.21,171.65,27.89,173.12,27.26z" class="st1"></path>
		<polygon points="162.51,13.06 162.51,4.55 156.64,4.55 156.64,7.19" class="st1"></polygon>
		<polygon points="207.4,4.55 192.31,4.55 198.17,10.41 207.4,10.41" class="st1"></polygon>
		<path d="M207.09,18.72C207.1,18.72,207.1,18.72,207.09,18.72c-0.02-0.09-0.05-0.17-0.08-0.26
			c-0.01-0.03-0.02-0.05-0.03-0.08c-0.01-0.02-0.01-0.03-0.02-0.05c-0.03-0.1-0.07-0.2-0.1-0.29c0,0-0.01,0-0.01,0
			c0-0.01-0.01-0.02-0.01-0.03c-0.01-0.02-0.02-0.05-0.03-0.07c-0.06-0.14-0.12-0.27-0.19-0.4c-0.01-0.02-0.02-0.03-0.02-0.05
			c-0.1-0.2-0.21-0.4-0.33-0.59c-0.01-0.02-0.03-0.05-0.04-0.07c-0.02-0.03-0.05-0.07-0.07-0.1c0,0-0.01-0.01-0.01-0.01
			c-0.03-0.04-0.05-0.08-0.08-0.12c0,0-0.01-0.01-0.01-0.01c-0.04-0.06-0.08-0.11-0.12-0.17c-0.01-0.01-0.02-0.02-0.02-0.03
			c-0.01-0.01-0.01-0.02-0.02-0.02c-0.02-0.03-0.04-0.06-0.07-0.09c0-0.01-0.01-0.01-0.01-0.02c-0.02-0.02-0.03-0.04-0.05-0.06
			c-0.02-0.03-0.04-0.05-0.06-0.08c-0.02-0.02-0.04-0.05-0.06-0.07c-0.1-0.12-0.2-0.23-0.31-0.34c0,0,0,0-0.01-0.01
			c-0.03-0.03-0.06-0.06-0.09-0.09c-0.02-0.02-0.04-0.04-0.06-0.05c-0.02-0.02-0.04-0.04-0.06-0.06c-0.01-0.01-0.02-0.02-0.03-0.03
			c0,0-0.01-0.01-0.01-0.01c-0.03-0.03-0.07-0.07-0.1-0.1c-0.06-0.05-0.11-0.1-0.16-0.14c0,0,0,0-0.01-0.01
			c-0.13-0.11-0.27-0.22-0.42-0.33c-0.01-0.01-0.02-0.02-0.03-0.02c-0.07-0.05-0.14-0.1-0.21-0.15c-0.01,0-0.01-0.01-0.02-0.01
			c-0.07-0.04-0.14-0.09-0.21-0.14c-0.05-0.03-0.11-0.07-0.16-0.1c0,0,0,0,0,0c-0.1-0.06-0.2-0.12-0.31-0.17
			c-0.06-0.03-0.11-0.06-0.17-0.08c-0.03-0.02-0.06-0.03-0.09-0.04c-0.09-0.04-0.19-0.09-0.28-0.13c-0.01,0-0.01-0.01-0.02-0.01
			c-0.08-0.03-0.16-0.07-0.24-0.1c-0.01,0-0.03-0.01-0.04-0.01c-0.12-0.05-0.24-0.09-0.37-0.13c-0.01,0-0.01,0-0.02-0.01
			c-0.06-0.02-0.12-0.04-0.19-0.06c-0.01,0-0.01,0-0.02,0c-0.02-0.01-0.04-0.01-0.05-0.02c-0.02-0.01-0.04-0.02-0.06-0.03
			c-0.01,0-0.03,0-0.04,0c-0.08-0.02-0.15-0.04-0.23-0.05c-0.01,0-0.01,0-0.02,0c-0.06-0.01-0.12-0.03-0.18-0.04
			c-0.03-0.01-0.06-0.01-0.09-0.02c-0.08-0.01-0.15-0.03-0.22-0.04c-0.01,0-0.01,0-0.02,0c-0.05-0.01-0.09-0.01-0.14-0.02
			c0,0-0.01,0-0.01,0c-0.07-0.01-0.15-0.02-0.23-0.02c-0.01,0-0.01,0-0.02,0c-0.01,0-0.03,0-0.04,0c-0.02,0-0.04,0-0.06,0
			c-0.01,0-0.03,0-0.04,0c-0.02,0-0.04,0-0.06,0c-0.07,0-0.14-0.01-0.22-0.01c-0.02,0-0.03,0-0.05,0c-0.02,0-0.05,0-0.07,0
			c-0.01,0-0.02,0-0.03,0c-0.03,0-0.07,0-0.1,0c-2.97,0-5.93,0-8.9,0c-0.84,0-1.52-0.68-1.52-1.52c0-0.84,0.68-1.52,1.52-1.52
			c1.46,0,2.92,0,4.38,0c-1.91-1.91-3.83-3.83-5.74-5.74c-0.08,0.02-0.17,0.04-0.25,0.06c-0.17,0.04-0.34,0.08-0.51,0.13
			c-1.16,0.35-2.23,0.99-3.09,1.85c-0.86,0.86-1.5,1.93-1.85,3.09c-0.21,0.69-0.31,1.41-0.31,2.13c0,0.73,0.1,1.44,0.31,2.13
			c0.35,1.16,0.99,2.23,1.85,3.09c0.86,0.86,1.93,1.5,3.09,1.85c0.69,0.21,1.41,0.31,2.13,0.31c2.97,0,5.93,0,8.9,0
			c0.84,0,1.52,0.68,1.52,1.52c0,0.84-0.68,1.52-1.52,1.52c-5.43,0-10.86,0-16.28,0c0,1.95,0,3.91,0,5.86c5.43,0,10.86,0,16.28,0
			c1.62,0,3.15-0.51,4.44-1.49c1.25-0.94,2.18-2.28,2.63-3.76c0.21-0.69,0.31-1.41,0.31-2.13C207.4,20.11,207.3,19.4,207.09,18.72z" class="st1"></path>
		<polygon points="230.59,22.35 216.7,22.35 216.7,20.69 210.84,14.83 210.84,28.21 230.58,28.21" class="st1"></polygon>
		<polygon points="217.98,19.33 230.59,19.33 230.59,13.47 220.39,13.47 217.34,10.41 230.59,10.41 230.59,4.55 
			210.84,4.55 210.84,12.19" class="st1"></polygon>
	</g>
</g>
</svg>
